<svg width="32" height="32" xmlns="http://www.w3.org/2000/svg">
 <title/>
 <desc/>

 <g>
  <title>background</title>
  <rect fill="none" id="canvas_background" height="402" width="582" y="-1" x="-1"/>
 </g>
 <g>
  <title>Layer 1</title>
  <path id="Fill-1" fill="#000000" d="m11.561501,18.739703l8.09,0l-4.082,-11.174l-4.008,11.174zm10.86,7.517l-1.293,-3.398l-11.008,0l-1.293,3.472c-0.504,1.354 -0.935,2.269 -1.292,2.743c-0.357,0.474 -0.942,0.711 -1.755,0.711c-0.69,0 -1.299,-0.253 -1.829,-0.757c-0.529,-0.505 -0.794,-1.078 -0.794,-1.718c0,-0.369 0.062,-0.751 0.185,-1.145c0.123,-0.394 0.326,-0.942 0.609,-1.644l6.927,-17.583c0.197,-0.505 0.434,-1.111 0.711,-1.819c0.277,-0.708 0.572,-1.296 0.886,-1.764c0.314,-0.468 0.727,-0.847 1.238,-1.136c0.511,-0.289 1.142,-0.434 1.893,-0.434c0.763,0 1.4,0.145 1.911,0.434c0.511,0.289 0.924,0.662 1.238,1.117c0.314,0.456 0.579,0.945 0.794,1.469c0.216,0.523 0.49,1.222 0.822,2.096l7.074,17.472c0.554,1.33 0.831,2.297 0.831,2.9c0,0.628 -0.262,1.204 -0.785,1.727c-0.523,0.523 -1.154,0.785 -1.893,0.785c-0.431,0 -0.8,-0.077 -1.108,-0.231c-0.308,-0.154 -0.567,-0.363 -0.776,-0.628c-0.209,-0.265 -0.434,-0.671 -0.674,-1.219c-0.24,-0.548 -0.446,-1.031 -0.619,-1.45l0,0z"/>
 </g>
</svg>