<?xml version="1.0" encoding="UTF-8"?>
<svg id="Layer_1" data-name="Layer 1" xmlns="http://www.w3.org/2000/svg" xmlns:xlink="http://www.w3.org/1999/xlink" viewBox="0 0 181 27"><defs><style>.cls-1{fill:#fff;}.cls-1,.cls-2,.cls-5{fill-rule:evenodd;}.cls-2{fill:#2e2ea3;}.cls-3{mask:url(#mask);}.cls-4{mask:url(#mask-2-2);}.cls-5{fill:#3f3f3f;}.cls-6{mask:url(#mask-3);}.cls-7{mask:url(#mask-4-2);}</style><mask id="mask" x="0.02" y="1.17" width="4.75" height="6.54" maskUnits="userSpaceOnUse"><g id="mask-2"><polygon id="path-1" class="cls-1" points="0.02 1.17 4.77 1.17 4.77 7.7 0.02 7.7 0.02 1.17"/></g></mask><mask id="mask-2-2" x="0" y="1.17" width="4.77" height="6.54" maskUnits="userSpaceOnUse"><g id="mask-2-3" data-name="mask-2"><polygon id="path-1-2" data-name="path-1" class="cls-1" points="0.02 1.17 4.77 1.17 4.77 7.7 0.02 7.7 0.02 1.17"/></g></mask><mask id="mask-3" x="163.33" y="9.12" width="17.55" height="17.86" maskUnits="userSpaceOnUse"><g id="mask-4"><polygon id="path-3" class="cls-1" points="163.33 9.12 180.88 9.12 180.88 26.98 163.33 26.98 163.33 9.12"/></g></mask><mask id="mask-4-2" x="163.33" y="9.12" width="17.55" height="17.88" maskUnits="userSpaceOnUse"><g id="mask-4-3" data-name="mask-4"><polygon id="path-3-2" data-name="path-3" class="cls-1" points="163.33 9.12 180.88 9.12 180.88 26.98 163.33 26.98 163.33 9.12"/></g></mask></defs><title>Artboard 1</title><g id="Homepage"><g id="Dreamforce-HomePage-V01"><g id="Nav-Bar"><g id="Logo"><path id="Fill-1" class="cls-2" d="M18.82,14.68a11.52,11.52,0,0,1-5.29-1.29,9.1,9.1,0,0,1,4.81-1.7,1.68,1.68,0,0,1-.3-1.15,4.13,4.13,0,0,1,.78-2.17,4.05,4.05,0,0,1,.78,2.17,1.59,1.59,0,0,1-.3,1.15,9.11,9.11,0,0,1,4.82,1.7A11.56,11.56,0,0,1,18.82,14.68Zm11.67-3.57a4.53,4.53,0,0,0,.07-.74,4.19,4.19,0,0,0-4.2-4.18,4.73,4.73,0,0,0-.93.1A10.09,10.09,0,0,0,6,10.05v.18c2.88.78,5.49,3.61,7,4.67a10.25,10.25,0,0,0,11.76,0C27,13.38,28.56,12.94,30,13a3.94,3.94,0,0,1,3.76,3.86,3.73,3.73,0,0,1-3.68,3.78,4.85,4.85,0,0,1-3.33-1.24.09.09,0,0,1,.1-.15,4.59,4.59,0,0,0,4.15.52,2.73,2.73,0,0,0,1.55-2.41,2.42,2.42,0,0,0-2.25-2.58,2.51,2.51,0,0,0-2,.64,9.21,9.21,0,0,0-2.11,3C25.3,20.24,23.81,22.24,22,23h8a6,6,0,0,0,.46-11.89Z"/><path id="Fill-3" class="cls-2" d="M12.54,20.67c-1-1.23-1.82-2.34-4-5.63S3.15,11.56,2,12.56A6.66,6.66,0,0,0,6.58,24H16c-1.36-.58-2.47-2.09-3.46-3.32"/><g id="Group-7"><g class="cls-3"><path id="Fill-4" class="cls-2" d="M3.16,4.55A1.65,1.65,0,0,0,4.77,2.86,1.65,1.65,0,0,0,3.16,1.17,1.65,1.65,0,0,0,1.55,2.86,1.65,1.65,0,0,0,3.16,4.55"/></g><g class="cls-4"><path id="Fill-6" class="cls-2" d="M1.28,7.7A1.31,1.31,0,0,0,2.56,6.36,1.31,1.31,0,0,0,1.28,5,1.31,1.31,0,0,0,0,6.36,1.31,1.31,0,0,0,1.28,7.7"/></g></g><path id="Fill-8" class="cls-2" d="M2,9A1,1,0,1,0,3,8,1,1,0,0,0,2,9"/><path id="Fill-9" class="cls-5" d="M68.78,9.05l-.31,0h-.25a4.09,4.09,0,0,0-2.33.61,4.6,4.6,0,0,0-1.06,1c0-.14,0-.3,0-.46,0-.38,0-.71-.08-1a.15.15,0,0,0-.14-.14l-.36,0h-.72l-.37,0a.16.16,0,0,0-.15.16V20.79a.16.16,0,0,0,.14.16,3.32,3.32,0,0,0,.42,0h.78l.41,0a.16.16,0,0,0,.14-.16V14.84a4.46,4.46,0,0,1,.91-3.14,3.31,3.31,0,0,1,2.44-.92h.23l.27,0h0a.17.17,0,0,0,.17-.13A3.57,3.57,0,0,0,69,9.93a4.11,4.11,0,0,0-.07-.75.17.17,0,0,0-.15-.13"/><path id="Fill-10" class="cls-5" d="M71.94,14.26a4.78,4.78,0,0,1,1-2.58,2.87,2.87,0,0,1,2.3-1,2.75,2.75,0,0,1,1.37.32,2.81,2.81,0,0,1,.93.81A3.68,3.68,0,0,1,78,13a5.69,5.69,0,0,1,.17,1.23Zm6.83-3.67a4.05,4.05,0,0,0-1.51-1.17,4.74,4.74,0,0,0-2-.42,5,5,0,0,0-2.36.52,4.52,4.52,0,0,0-1.62,1.42,6.28,6.28,0,0,0-.93,2.1A9.74,9.74,0,0,0,70,15.57a9.41,9.41,0,0,0,.33,2.57,5.66,5.66,0,0,0,1,2.05,4.7,4.7,0,0,0,1.79,1.33,6.35,6.35,0,0,0,2.58.48,10.47,10.47,0,0,0,1.92-.17,5.88,5.88,0,0,0,1.55-.49.16.16,0,0,0,.09-.16c0-.22-.05-.46-.09-.71a3.48,3.48,0,0,0-.19-.68.18.18,0,0,0-.15-.1h0a9.63,9.63,0,0,1-1.39.41,7.28,7.28,0,0,1-1.53.15,3.89,3.89,0,0,1-3-1.09,4.86,4.86,0,0,1-1-3.26H79.8a.17.17,0,0,0,.16-.16c0-.16,0-.35,0-.58s0-.4,0-.55a7.63,7.63,0,0,0-.31-2.24A5,5,0,0,0,78.77,10.59Z"/><path id="Fill-11" class="cls-5" d="M89.17,20.05c-.35.07-.71.12-1.07.17s-.84.07-1.3.07a6.56,6.56,0,0,1-1.08-.09,2.79,2.79,0,0,1-1-.31,1.86,1.86,0,0,1-.68-.66,2.3,2.3,0,0,1-.26-1.17,2,2,0,0,1,.87-1.76,4.39,4.39,0,0,1,2.55-.63,10.52,10.52,0,0,1,1.09.06l.83.09ZM86.48,9a12.05,12.05,0,0,0-1.81.13,9.75,9.75,0,0,0-1.48.33.17.17,0,0,0-.12.16,3.68,3.68,0,0,0,.09.79,2.12,2.12,0,0,0,.21.67.16.16,0,0,0,.14.08h0a9.48,9.48,0,0,1,1.32-.32,10.29,10.29,0,0,1,1.64-.13,2.68,2.68,0,0,1,2,.68,3,3,0,0,1,.66,2.17v.54L88.36,14c-.4,0-.88-.06-1.43-.06a7.22,7.22,0,0,0-2,.26,4.52,4.52,0,0,0-1.56.8,3.81,3.81,0,0,0-1,1.32A4,4,0,0,0,82,18.11a3.42,3.42,0,0,0,1.29,3,5.85,5.85,0,0,0,3.44.91,15.55,15.55,0,0,0,2.19-.17c.76-.11,1.42-.22,2-.33a.17.17,0,0,0,.13-.17v-8a4.33,4.33,0,0,0-1.13-3.29A4.8,4.8,0,0,0,86.48,9Z"/><path id="Fill-12" class="cls-5" d="M105.16,9a3.51,3.51,0,0,0-1.2.2,3.45,3.45,0,0,0-.95.51,4.1,4.1,0,0,0-.73.71c-.14.17-.28.35-.4.52-.1-.22-.21-.43-.32-.62a2.88,2.88,0,0,0-.61-.69,2.59,2.59,0,0,0-.85-.47,4.14,4.14,0,0,0-2.41,0,3.94,3.94,0,0,0-1,.52,4.1,4.1,0,0,0-.75.75,2.75,2.75,0,0,0-.23.33c0-.13,0-.27,0-.42,0-.38,0-.7-.06-1a.17.17,0,0,0-.14-.14l-.33,0h-.67l-.35,0a.16.16,0,0,0-.14.16V20.8a.16.16,0,0,0,.13.15l.39,0h.73l.38,0a.16.16,0,0,0,.13-.15V15.09A7.48,7.48,0,0,1,96,13.25a4.75,4.75,0,0,1,.63-1.44,3,3,0,0,1,.94-.92,2.23,2.23,0,0,1,1.17-.32,1.56,1.56,0,0,1,1.41.75,4.61,4.61,0,0,1,.51,2.45v7a.16.16,0,0,0,.13.15l.39,0h.73a2.77,2.77,0,0,0,.38,0,.15.15,0,0,0,.13-.15V14.13a5,5,0,0,1,.18-1.35,3.39,3.39,0,0,1,.52-1.1,2.4,2.4,0,0,1,.82-.73,2.35,2.35,0,0,1,1.15-.27,1.8,1.8,0,0,1,1.62.8,4.83,4.83,0,0,1,.55,2.58V20.8a.16.16,0,0,0,.13.15l.39,0h.73l.38,0a.16.16,0,0,0,.13-.15V13.55a5.43,5.43,0,0,0-.9-3.35A3.46,3.46,0,0,0,105.16,9"/><path id="Fill-13" class="cls-5" d="M128.17,20.05c-.35.07-.71.12-1.07.17s-.84.07-1.3.07a6.56,6.56,0,0,1-1.08-.09,2.79,2.79,0,0,1-1-.31,1.86,1.86,0,0,1-.68-.66,2.3,2.3,0,0,1-.26-1.17,2,2,0,0,1,.87-1.76,4.39,4.39,0,0,1,2.55-.63,10.52,10.52,0,0,1,1.09.06l.83.09ZM125.48,9a12.05,12.05,0,0,0-1.81.13,9.75,9.75,0,0,0-1.48.33.17.17,0,0,0-.12.16,3.68,3.68,0,0,0,.09.79,2.12,2.12,0,0,0,.21.67.16.16,0,0,0,.14.08h0a9.48,9.48,0,0,1,1.32-.32,10.29,10.29,0,0,1,1.64-.13,2.68,2.68,0,0,1,2,.68,3,3,0,0,1,.66,2.17v.54l-.81-.08c-.4,0-.88-.06-1.43-.06a7.22,7.22,0,0,0-2,.26,4.52,4.52,0,0,0-1.56.8,3.81,3.81,0,0,0-1,1.32,4,4,0,0,0-.37,1.77,3.42,3.42,0,0,0,1.29,3,5.85,5.85,0,0,0,3.44.91,15.55,15.55,0,0,0,2.19-.17c.76-.11,1.42-.22,2-.33a.17.17,0,0,0,.13-.17v-8a4.33,4.33,0,0,0-1.13-3.29A4.8,4.8,0,0,0,125.48,9Z"/><path id="Fill-14" class="cls-5" d="M141.85,20.63a3.81,3.81,0,0,0-.23-.68.15.15,0,0,0-.14-.09h-.06a7,7,0,0,1-1.1.3,6.52,6.52,0,0,1-1.27.12,4.06,4.06,0,0,1-3-1.15,5.05,5.05,0,0,1-1.12-3.64,7.31,7.31,0,0,1,.24-1.94,4.25,4.25,0,0,1,.73-1.51,3.3,3.3,0,0,1,1.21-1,3.81,3.81,0,0,1,1.71-.36,8.38,8.38,0,0,1,1.46.12,6.36,6.36,0,0,1,1.11.28h.06a.17.17,0,0,0,.15-.11,5.55,5.55,0,0,0,.18-.67,4.36,4.36,0,0,0,.08-.74.17.17,0,0,0-.11-.16,6.79,6.79,0,0,0-1.26-.31A10,10,0,0,0,138.78,9a6,6,0,0,0-2.5.5,5.08,5.08,0,0,0-1.81,1.38,6.22,6.22,0,0,0-1.1,2.07A8.32,8.32,0,0,0,133,15.5a7,7,0,0,0,1.52,4.82A5.66,5.66,0,0,0,138.94,22a8.32,8.32,0,0,0,1.64-.15,7.07,7.07,0,0,0,1.31-.36.18.18,0,0,0,.11-.19c0-.18-.08-.4-.15-.67"/><path id="Fill-15" class="cls-5" d="M149.67,20.14l-.08,0h-.05a4.43,4.43,0,0,1-1.39.2,3.21,3.21,0,0,1-.63-.06,1.08,1.08,0,0,1-.49-.21,1.09,1.09,0,0,1-.36-.45,2.14,2.14,0,0,1-.14-.85V11.25h3.11a.17.17,0,0,0,.17-.13c0-.08,0-.19,0-.32s0-.26,0-.38,0-.25,0-.36,0-.21,0-.3a.17.17,0,0,0-.17-.13h-3.11V6.17a.16.16,0,0,0-.17-.17h-.09a.17.17,0,0,0-.12,0l-1.47,1.41a.17.17,0,0,0-.05.12V9.63h-1.41a.17.17,0,0,0-.17.13,2.19,2.19,0,0,0,0,.3c0,.11,0,.23,0,.36s0,.25,0,.38a2.13,2.13,0,0,0,0,.32.17.17,0,0,0,.17.13h1.41v7.58a3,3,0,0,0,.9,2.42,3.47,3.47,0,0,0,2.31.75,7.33,7.33,0,0,0,2-.26.16.16,0,0,0,.12-.18,8.84,8.84,0,0,0-.24-1.32.22.22,0,0,0-.09-.1"/><path id="Fill-16" class="cls-5" d="M159.16,19a3.44,3.44,0,0,1-5.32,0A6.14,6.14,0,0,1,153,15.5a6.14,6.14,0,0,1,.89-3.53,3.44,3.44,0,0,1,5.32,0,6.14,6.14,0,0,1,.89,3.53A6.14,6.14,0,0,1,159.16,19Zm1.46-8.14A5,5,0,0,0,158.9,9.5a5.47,5.47,0,0,0-2.4-.5,5.55,5.55,0,0,0-2.41.5,4.91,4.91,0,0,0-1.73,1.39,6,6,0,0,0-1,2.07,9.94,9.94,0,0,0,0,5.08,6,6,0,0,0,1,2.07,4.91,4.91,0,0,0,1.73,1.39,5.55,5.55,0,0,0,2.41.5,5.47,5.47,0,0,0,2.4-.5,5,5,0,0,0,1.72-1.39,6.18,6.18,0,0,0,1-2.07,9.39,9.39,0,0,0,0-5.08A6.18,6.18,0,0,0,160.62,10.89Z"/><g id="Group-20"><g class="cls-6"><path id="Fill-17" class="cls-5" d="M168.49,9.14h-.24a3.6,3.6,0,0,0-2.19.62,4.21,4.21,0,0,0-1,1c0-.15,0-.31,0-.48q0-.57-.06-1a.17.17,0,0,0-.14-.14l-.34,0h-.68l-.35,0a.16.16,0,0,0-.14.16V21.08a.16.16,0,0,0,.13.16,3.14,3.14,0,0,0,.4,0h.73l.39,0a.16.16,0,0,0,.13-.16V15a4.73,4.73,0,0,1,.86-3.18,3,3,0,0,1,2.31-.94h.21l.25,0h0a.17.17,0,0,0,.16-.14,3.64,3.64,0,0,0,.07-.74,4.24,4.24,0,0,0-.07-.77.16.16,0,0,0-.13-.13Z"/></g><g class="cls-7"><path id="Fill-19" class="cls-5" d="M180.86,9.25a.16.16,0,0,0-.12-.08,2.6,2.6,0,0,0-.37,0h-.81a2.6,2.6,0,0,0-.37,0,.16.16,0,0,0-.13.11l-3.53,11-3.59-11a.16.16,0,0,0-.13-.11,3,3,0,0,0-.41,0h-.93a2.77,2.77,0,0,0-.39,0,.13.13,0,0,0-.11.08.17.17,0,0,0,0,.14L174,21.13a.16.16,0,0,0,.13.11,2.78,2.78,0,0,0,.4,0h.67l-.84,2.64a2.63,2.63,0,0,1-.63,1.12,1.41,1.41,0,0,1-.93.28,3.51,3.51,0,0,1-.76-.07,2.5,2.5,0,0,1-.51-.15h-.06a.17.17,0,0,0-.14.08,2.77,2.77,0,0,0-.35,1.38.18.18,0,0,0,.11.16c.22.06.49.12.8.18a4.73,4.73,0,0,0,1,.1,3.14,3.14,0,0,0,1.81-.53,3.47,3.47,0,0,0,1.2-1.86l5-15.23a.2.2,0,0,0,0-.13"/></g></g><path id="Fill-21" class="cls-5" d="M57.66,15.67a5.13,5.13,0,0,1-1.27,2.08,4.63,4.63,0,0,1-2,1.11,10.16,10.16,0,0,1-2.69.33c-.37,0-.74,0-1.09,0l-.79-.07V5.89a8,8,0,0,1,.8-.06l1.08,0a6.67,6.67,0,0,1,4.72,1.59c1.12,1,1.69,2.73,1.69,5A10.22,10.22,0,0,1,57.66,15.67ZM58,6.26a6.84,6.84,0,0,0-2.58-1.68A10.47,10.47,0,0,0,51.79,4l-.93,0-1,.06-1,.08-.77.09a.16.16,0,0,0-.13.16V20.57a.16.16,0,0,0,.13.16l.72.1q.43.06.93.09l1,.06,1,0C57.24,21,60,18.12,60,12.45a11.7,11.7,0,0,0-.49-3.52A6.94,6.94,0,0,0,58,6.26Z"/><path id="Fill-22" class="cls-5" d="M121,4.13a.17.17,0,0,0-.16-.13h-8.62a.16.16,0,0,0-.16.13c0,.09,0,16.66,0,16.66a.16.16,0,0,0,.14.16,3.13,3.13,0,0,0,.41,0h.78a3.33,3.33,0,0,0,.41,0,.16.16,0,0,0,.14-.16V13h5.81a.17.17,0,0,0,.17-.13,2.16,2.16,0,0,0,0-.3c0-.11,0-.23,0-.36s0-.25,0-.38a2.5,2.5,0,0,0,0-.32.17.17,0,0,0-.17-.13h-5.81V5.63h6.9a.17.17,0,0,0,.16-.14,2,2,0,0,0,0-.29c0-.12,0-.24,0-.36s0-.26,0-.38a2.29,2.29,0,0,0,0-.33"/></g></g></g></g></svg>
